{"asset":{"extras":{"author":"Berk Gedik (https://sketchfab.com/berkgedik)","license":"CC-BY-4.0 (http://creativecommons.org/licenses/by/4.0/)","source":"https://sketchfab.com/3d-models/stylized-mazda-mx5-1f06b19dec9e48b6975278b2b1dce431","title":"Stylized Mazda MX5"},"generator":"Sketchfab-13.42.0","version":"2.0"},"samplers":[{"magFilter":9729,"minFilter":9987,"wrapS":10497,"wrapT":10497}],"images":[{"uri":"textures/Shell_baseColor.png"},{"uri":"textures/Shell_metallicRoughness.png"},{"uri":"textures/Shell_normal.png"},{"uri":"textures/Glass_baseColor.png"},{"uri":"textures/Glass_metallicRoughness.png"},{"uri":"textures/Glass_normal.png"},{"uri":"textures/OtherParts_baseColor.png"},{"uri":"textures/OtherParts_metallicRoughness.png"},{"uri":"textures/OtherParts_normal.png"}],"textures":[{"sampler":0,"source":0},{"sampler":0,"source":1},{"sampler":0,"source":2},{"sampler":0,"source":3},{"sampler":0,"source":4},{"sampler":0,"source":5},{"sampler":0,"source":6},{"sampler":0,"source":7},{"sampler":0,"source":8}],"materials":[{"name":"Shell","normalTexture":{"index":2},"occlusionTexture":{"index":1},"pbrMetallicRoughness":{"baseColorTexture":{"index":0},"metallicRoughnessTexture":{"index":1}}},{"name":"Glass","normalTexture":{"index":5},"occlusionTexture":{"index":4},"pbrMetallicRoughness":{"baseColorTexture":{"index":3},"metallicRoughnessTexture":{"index":4}}},{"name":"OtherParts","normalTexture":{"index":8},"occlusionTexture":{"index":7},"pbrMetallicRoughness":{"baseColorTexture":{"index":6},"metallicRoughnessTexture":{"index":7}}}],"scene":0,"scenes":[{"nodes":[0,1,2]}],"nodes":[{"name":"PaintedBody","mesh":0},{"name":"Glass","mesh":1},{"name":"TrimAndLamps","mesh":2}],"meshes":[{"name":"PaintedBody","primitives":[{"attributes":{"POSITION":0,"NORMAL":1,"TEXCOORD_0":2},"indices":3,"material":0,"mode":4}]},{"name":"Glass","primitives":[{"attributes":{"POSITION":4,"NORMAL":5,"TEXCOORD_0":6},"indices":7,"material":1,"mode":4}]},{"name":"TrimAndLamps","primitives":[{"attributes":{"POSITION":8,"NORMAL":9,"TEXCOORD_0":10},"indices":11,"material":2,"mode":4}]}],"accessors":[{"bufferView":0,"componentType":5126,"count":7075,"type":"VEC3","min":[-1.9480009742286044,0.03612585898024008,-0.8374998576389291],"max":[2.0220001034985646,1.2300019868874106,0.8375000136194723]},{"bufferView":1,"componentType":5126,"count":7075,"type":"VEC3","min":[-0.9999999814871372,-0.9999998514430821,-0.9999999849797834],"max":[0.9999995552237075,0.9999944120251449,0.9999999850298914]},{"bufferView":2,"componentType":5126,"count":7075,"type":"VEC2"},{"bufferView":3,"componentType":5125,"count":29808,"type":"SCALAR"},{"bufferView":4,"componentType":5126,"count":1436,"type":"VEC3","min":[-1.1627034117845254,0.7531104533154527,-0.5785655656785761],"max":[0.3801854449678663,1.1687729024905236,0.5785655656785759]},{"bufferView":5,"componentType":5126,"count":1436,"type":"VEC3","min":[-0.9933428633267357,-0.988615241126727,-0.999996860181159],"max":[0.9933432480060573,0.9886139652170242,0.99999686133577]},{"bufferView":6,"componentType":5126,"count":1436,"type":"VEC2"},{"bufferView":7,"componentType":5125,"count":6240,"type":"SCALAR"},{"bufferView":8,"componentType":5126,"count":658,"type":"VEC3","min":[-1.9080414135904888,0.04198443441123066,-0.655251800963139],"max":[-1.2262429365477112,0.5899948869174774,0.655251722972867]},{"bufferView":9,"componentType":5126,"count":658,"type":"VEC3","min":[-0.9999999999999752,-0.9984939159809842,-0.9999742592957938],"max":[0.9999999999999886,0.9984939312052606,0.9999742847183838]},{"bufferView":10,"componentType":5126,"count":658,"type":"VEC2"},{"bufferView":11,"componentType":5125,"count":2112,"type":"SCALAR"}],"bufferViews":[{"buffer":0,"byteOffset":0,"byteLength":84900},{"buffer":0,"byteOffset":84900,"byteLength":84900},{"buffer":0,"byteOffset":169800,"byteLength":56600},{"buffer":0,"byteOffset":226400,"byteLength":119232},{"buffer":0,"byteOffset":345632,"byteLength":17232},{"buffer":0,"byteOffset":362864,"byteLength":17232},{"buffer":0,"byteOffset":380096,"byteLength":11488},{"buffer":0,"byteOffset":391584,"byteLength":24960},{"buffer":0,"byteOffset":416544,"byteLength":7896},{"buffer":0,"byteOffset":424440,"byteLength":7896},{"buffer":0,"byteOffset":432336,"byteLength":5264},{"buffer":0,"byteOffset":437600,"byteLength":8448}],"buffers":[{"uri":"mx5na.bin","byteLength":446048}]}